<svg width="229.004" height="109.912" viewBox="0 0 229.004 109.912" xmlns="http://www.w3.org/2000/svg"><g id="svgGroup" stroke-linecap="round" fill-rule="evenodd" font-size="9pt" stroke="#000000" stroke-width="0.25mm" fill="#fffefe" style="stroke:#000000;stroke-width:0.25mm;fill:#fffefe"><path d="M 20.215 29.688 L 20.215 7.08 Q 20.215 6.006 20.044 5.371 Q 19.873 4.736 19.702 4.37 Q 19.532 4.004 19.361 3.784 Q 19.19 3.565 19.19 3.32 Q 19.19 3.027 19.483 2.832 Q 19.776 2.637 20.264 2.49 Q 20.752 2.344 21.314 2.271 Q 21.875 2.197 22.412 2.197 Q 24.903 2.197 26.343 3.491 Q 27.783 4.785 27.783 6.592 L 27.783 60.303 Q 27.783 61.133 27.979 61.939 Q 28.174 62.744 28.589 63.403 Q 29.004 64.063 29.663 64.478 Q 30.323 64.893 31.201 64.893 Q 32.715 64.893 33.814 63.818 Q 34.912 62.744 35.718 61.133 Q 36.524 59.522 37.036 57.642 Q 37.549 55.762 37.891 54.102 Q 38.184 52.539 38.867 51.831 Q 39.551 51.123 40.283 51.123 Q 40.869 51.123 41.504 51.489 Q 42.139 51.856 42.652 52.442 Q 43.164 53.027 43.482 53.76 Q 43.799 54.492 43.799 55.225 L 43.799 55.469 Q 43.799 55.615 43.701 55.908 Q 43.067 58.399 41.968 61.133 Q 40.869 63.867 39.136 66.162 Q 37.403 68.457 35.01 69.971 Q 32.617 71.485 29.395 71.485 Q 26.807 71.485 24.854 70.41 Q 22.901 69.336 21.778 67.578 Q 20.117 69.287 17.945 70.386 Q 15.772 71.485 12.891 71.485 Q 9.961 71.485 7.569 70.459 Q 5.176 69.434 3.491 67.407 Q 1.807 65.381 0.904 62.378 Q 0 59.375 0 55.42 Q 0 49.658 1.612 45.142 Q 3.223 40.625 6.006 37.378 Q 8.789 34.131 12.451 32.202 Q 16.114 30.274 20.215 29.688 Z M 20.215 60.986 L 20.215 36.279 Q 17.774 36.719 15.503 37.915 Q 13.233 39.111 11.499 41.26 Q 9.766 43.408 8.741 46.704 Q 7.715 50 7.715 54.688 Q 7.715 57.422 8.277 59.351 Q 8.838 61.279 9.741 62.5 Q 10.645 63.721 11.866 64.307 Q 13.086 64.893 14.405 64.893 Q 16.358 64.893 17.798 63.77 Q 19.239 62.647 20.215 60.986 Z" id="0" vector-effect="non-scaling-stroke"/><path d="M 61.328 39.6 Q 61.328 42.383 60.376 45.313 Q 59.424 48.242 57.544 50.855 Q 55.664 53.467 52.906 55.542 Q 50.147 57.617 46.533 58.692 Q 47.022 59.961 47.827 61.109 Q 48.633 62.256 49.756 63.086 Q 50.879 63.916 52.368 64.404 Q 53.858 64.893 55.811 64.893 Q 58.741 64.893 60.84 63.794 Q 62.94 62.695 64.38 60.889 Q 65.821 59.082 66.699 56.836 Q 67.578 54.59 68.018 52.295 Q 68.36 50.635 69.409 50.073 Q 70.459 49.512 71.558 49.805 Q 72.657 50.098 73.462 51.05 Q 74.268 52.002 74.121 53.32 Q 73.926 54.834 73.462 56.787 Q 72.998 58.74 72.071 60.742 Q 71.143 62.744 69.702 64.673 Q 68.262 66.602 66.162 68.115 Q 64.063 69.629 61.231 70.557 Q 58.399 71.485 54.737 71.485 Q 51.319 71.485 48.12 70.142 Q 44.922 68.799 42.456 66.284 Q 39.991 63.77 38.501 60.083 Q 37.012 56.397 37.012 51.709 Q 37.012 46.973 38.33 42.896 Q 39.649 38.818 41.797 35.84 Q 43.946 32.861 46.68 31.177 Q 49.414 29.492 52.295 29.492 Q 54.395 29.492 56.079 30.225 Q 57.764 30.957 58.936 32.3 Q 60.108 33.643 60.718 35.498 Q 61.328 37.354 61.328 39.6 Z M 45.215 51.416 Q 45.215 51.856 45.264 52.295 Q 45.313 52.735 45.313 53.223 Q 47.168 52.344 48.682 50.977 Q 50.196 49.61 51.27 47.852 Q 52.344 46.094 52.93 44.019 Q 53.516 41.943 53.516 39.697 Q 53.516 38.037 52.954 37.11 Q 52.393 36.182 51.416 36.182 Q 50.196 36.182 49.243 37.012 Q 48.291 37.842 47.583 39.185 Q 46.875 40.527 46.411 42.212 Q 45.948 43.897 45.655 45.606 Q 45.362 47.315 45.264 48.853 Q 45.166 50.391 45.215 51.416 Z" id="1" vector-effect="non-scaling-stroke"/><path d="M 87.11 40.088 L 75.586 39.404 L 75.586 41.602 Q 79.004 45.752 81.763 50.122 Q 84.522 54.492 86.45 59.326 Q 88.379 64.16 89.429 69.531 Q 90.479 74.902 90.479 81.104 Q 90.479 87.354 89.527 92.651 Q 88.574 97.949 86.841 101.782 Q 85.108 105.615 82.642 107.764 Q 80.176 109.912 77.198 109.912 Q 74.561 109.912 72.803 108.618 Q 71.045 107.324 69.995 105.2 Q 68.946 103.076 68.482 100.391 Q 68.018 97.705 68.018 94.922 L 68.018 41.113 Q 67.871 40.967 67.7 40.772 Q 67.53 40.576 67.383 40.381 Q 66.211 39.209 65.259 38.208 Q 64.307 37.207 64.307 35.986 Q 64.307 35.254 64.844 34.497 Q 65.381 33.74 66.602 33.594 Q 66.846 33.594 67.188 33.545 Q 67.53 33.496 68.018 33.496 L 68.018 5.078 Q 68.018 4.004 67.847 3.369 Q 67.676 2.735 67.505 2.368 Q 67.334 2.002 67.163 1.782 Q 66.992 1.563 66.992 1.318 Q 66.992 1.026 67.285 0.83 Q 67.578 0.635 68.067 0.488 Q 68.555 0.342 69.116 0.269 Q 69.678 0.195 70.215 0.195 Q 72.705 0.195 74.146 1.489 Q 75.586 2.783 75.586 4.59 L 75.586 32.91 Q 77.344 32.764 79.102 32.642 Q 80.86 32.52 82.52 32.398 Q 84.18 32.276 85.572 32.227 Q 86.963 32.178 87.989 32.178 Q 89.649 32.178 90.869 32.813 Q 92.09 33.447 92.09 35.01 Q 92.09 35.547 91.968 36.572 Q 91.846 37.598 91.626 38.672 Q 91.407 39.746 91.04 40.527 Q 90.674 41.309 90.186 41.309 Q 89.942 41.309 89.82 41.138 Q 89.698 40.967 89.429 40.772 Q 89.16 40.576 88.648 40.381 Q 88.135 40.186 87.11 40.088 Z M 75.586 52.1 L 75.586 94.922 Q 75.586 96.094 75.684 97.461 Q 75.782 98.828 76.05 99.951 Q 76.319 101.074 76.782 101.831 Q 77.246 102.588 77.979 102.588 Q 79.053 102.588 79.981 101.026 Q 80.908 99.463 81.543 96.607 Q 82.178 93.75 82.544 89.819 Q 82.91 85.889 82.91 81.104 Q 82.91 77.686 82.447 74.048 Q 81.983 70.41 81.055 66.675 Q 80.127 62.94 78.76 59.253 Q 77.393 55.567 75.586 52.1 Z" id="2" vector-effect="non-scaling-stroke"/><path d="M 94.824 58.301 L 94.824 12.793 Q 94.824 10.01 95.532 7.642 Q 96.241 5.274 97.486 3.589 Q 98.731 1.904 100.391 0.952 Q 102.051 0 103.907 0 Q 106.104 0 107.617 0.806 Q 109.131 1.611 110.108 2.93 Q 111.084 4.248 111.646 5.957 Q 112.207 7.666 112.451 9.448 Q 112.696 11.231 112.744 12.964 Q 112.793 14.697 112.793 16.113 Q 112.793 19.776 112.11 23.804 Q 111.426 27.832 110.376 31.738 Q 109.326 35.645 108.081 39.234 Q 106.836 42.822 105.689 45.606 Q 104.541 48.389 103.638 50.147 Q 102.735 51.904 102.393 52.197 L 102.393 58.008 Q 102.393 61.035 103.662 62.964 Q 104.932 64.893 107.715 64.893 Q 109.424 64.893 110.913 63.843 Q 112.403 62.793 113.55 61.206 Q 114.698 59.619 115.479 57.739 Q 116.26 55.86 116.602 54.199 Q 116.895 52.735 117.505 52.075 Q 118.116 51.416 118.824 51.343 Q 119.532 51.27 120.264 51.685 Q 120.996 52.1 121.533 52.783 Q 122.071 53.467 122.339 54.321 Q 122.608 55.176 122.412 56.006 Q 121.729 58.008 120.459 60.693 Q 119.19 63.379 117.237 65.772 Q 115.283 68.164 112.647 69.824 Q 110.01 71.485 106.592 71.485 Q 103.711 71.485 101.514 70.532 Q 99.317 69.58 97.827 67.847 Q 96.338 66.113 95.581 63.696 Q 94.824 61.279 94.824 58.301 Z M 102.393 10.596 L 102.393 39.111 Q 102.93 38.086 103.443 36.353 Q 103.955 34.619 104.419 32.52 Q 104.883 30.42 105.274 28.125 Q 105.664 25.83 105.957 23.633 Q 106.25 21.436 106.421 19.507 Q 106.592 17.578 106.592 16.211 Q 106.592 11.231 105.86 8.911 Q 105.127 6.592 103.907 6.592 Q 103.516 6.592 103.223 6.983 Q 102.93 7.373 102.735 7.984 Q 102.539 8.594 102.466 9.302 Q 102.393 10.01 102.393 10.596 Z" id="3" vector-effect="non-scaling-stroke"/><path d="M 134.131 59.717 L 134.131 44.287 Q 134.131 43.555 134.058 43.067 Q 133.985 42.578 133.911 42.236 Q 133.838 41.895 133.789 41.626 Q 133.741 41.358 133.741 41.113 Q 133.741 40.332 134.497 39.868 Q 135.254 39.404 136.328 39.404 Q 138.819 39.404 140.283 40.698 Q 141.748 41.992 141.748 43.799 L 141.748 60.303 Q 141.748 61.133 141.944 61.939 Q 142.139 62.744 142.53 63.403 Q 142.92 64.063 143.579 64.478 Q 144.239 64.893 145.117 64.893 Q 146.631 64.893 147.73 63.818 Q 148.828 62.744 149.634 61.133 Q 150.44 59.522 150.952 57.642 Q 151.465 55.762 151.807 54.102 Q 152.149 52.539 152.808 51.831 Q 153.467 51.123 154.248 51.123 Q 154.834 51.123 155.445 51.489 Q 156.055 51.856 156.568 52.442 Q 157.08 53.027 157.398 53.76 Q 157.715 54.492 157.715 55.225 L 157.715 55.469 Q 157.715 55.615 157.617 55.908 Q 156.983 58.399 155.884 61.133 Q 154.785 63.867 153.076 66.162 Q 151.367 68.457 148.95 69.971 Q 146.533 71.485 143.311 71.485 Q 140.674 71.485 138.721 70.361 Q 136.768 69.238 135.645 67.383 Q 134.131 69.092 132.007 70.288 Q 129.883 71.485 127.051 71.485 Q 124.121 71.485 121.9 70.313 Q 119.678 69.141 118.164 67.114 Q 116.651 65.088 115.894 62.329 Q 115.137 59.57 115.137 56.397 Q 115.137 50.147 117.139 45.166 Q 119.141 40.186 122.461 36.694 Q 125.782 33.203 130.054 31.348 Q 134.326 29.492 138.916 29.492 Q 140.967 29.492 142.237 30.615 Q 143.506 31.738 143.506 33.692 Q 143.506 34.961 143.238 35.474 Q 142.969 35.986 142.237 35.986 Q 141.553 35.986 140.821 35.889 Q 140.088 35.791 139.307 35.791 Q 136.475 35.791 133.545 37.036 Q 130.616 38.281 128.247 40.845 Q 125.879 43.408 124.366 47.339 Q 122.852 51.27 122.852 56.69 Q 122.852 60.645 124.366 62.769 Q 125.879 64.893 128.516 64.893 Q 130.567 64.893 131.934 63.355 Q 133.301 61.817 134.131 59.717 Z" id="4" vector-effect="non-scaling-stroke"/><path d="M 152.246 67.09 L 152.246 35.401 Q 152.246 33.985 152.027 33.35 Q 151.807 32.715 151.807 32.178 Q 151.807 31.445 152.588 30.982 Q 153.369 30.518 154.444 30.518 Q 156.934 30.518 158.374 31.812 Q 159.815 33.106 159.815 34.912 L 159.815 39.404 Q 160.84 37.305 162.036 35.498 Q 163.233 33.692 164.624 32.349 Q 166.016 31.006 167.603 30.249 Q 169.19 29.492 171.045 29.492 Q 173.535 29.492 175.147 30.42 Q 176.758 31.348 177.686 32.813 Q 178.614 34.277 178.98 36.084 Q 179.346 37.891 179.346 39.6 L 179.346 60.303 Q 179.346 60.645 179.395 61.401 Q 179.444 62.158 179.688 62.94 Q 179.932 63.721 180.445 64.307 Q 180.957 64.893 181.934 64.893 Q 183.448 64.893 184.546 63.818 Q 185.645 62.744 186.45 61.133 Q 187.256 59.522 187.769 57.642 Q 188.282 55.762 188.623 54.102 Q 188.916 52.539 189.6 51.831 Q 190.283 51.123 191.016 51.123 Q 191.602 51.123 192.237 51.489 Q 192.871 51.856 193.384 52.442 Q 193.897 53.027 194.214 53.76 Q 194.532 54.492 194.532 55.225 L 194.532 55.469 Q 194.532 55.615 194.434 55.908 Q 193.799 58.399 192.7 61.133 Q 191.602 63.867 189.868 66.162 Q 188.135 68.457 185.742 69.971 Q 183.35 71.485 180.127 71.485 Q 178.125 71.485 176.587 70.728 Q 175.049 69.971 173.95 68.701 Q 172.852 67.432 172.29 65.723 Q 171.729 64.014 171.729 62.11 L 171.729 41.797 Q 171.729 40.625 171.68 39.6 Q 171.631 38.574 171.411 37.793 Q 171.192 37.012 170.777 36.548 Q 170.362 36.084 169.629 36.084 Q 168.555 36.084 166.992 37.549 Q 165.43 39.014 163.916 41.358 Q 162.403 43.701 161.255 46.655 Q 160.108 49.61 159.815 52.588 L 159.815 67.188 Q 159.815 67.92 159.79 68.677 Q 159.766 69.434 159.497 70.044 Q 159.229 70.654 158.667 71.069 Q 158.106 71.485 157.032 71.485 Q 156.299 71.485 155.445 71.314 Q 154.59 71.143 153.882 70.679 Q 153.174 70.215 152.71 69.36 Q 152.246 68.506 152.246 67.09 Z" id="5" vector-effect="non-scaling-stroke"/><path d="M 206.739 77.393 L 206.739 66.895 Q 205.225 68.408 203.199 69.458 Q 201.172 70.508 198.535 70.508 Q 195.606 70.508 193.384 69.336 Q 191.162 68.164 189.649 66.138 Q 188.135 64.111 187.378 61.353 Q 186.621 58.594 186.621 55.42 Q 186.621 49.17 188.623 44.19 Q 190.625 39.209 193.946 35.718 Q 197.266 32.227 201.538 30.371 Q 205.811 28.516 210.401 28.516 Q 212.451 28.516 213.721 29.614 Q 214.991 30.713 214.991 32.715 Q 214.991 33.985 214.722 34.497 Q 214.453 35.01 213.721 35.01 Q 213.037 35.01 212.305 34.912 Q 211.573 34.815 210.791 34.815 Q 207.959 34.815 205.03 36.06 Q 202.1 37.305 199.732 39.868 Q 197.364 42.432 195.85 46.362 Q 194.336 50.293 194.336 55.713 Q 194.336 59.619 195.85 61.768 Q 197.364 63.916 200 63.916 Q 201.514 63.916 202.637 63.013 Q 203.76 62.11 204.59 60.742 Q 205.42 59.375 205.933 57.739 Q 206.446 56.104 206.739 54.59 L 206.739 43.311 Q 206.739 41.895 206.519 41.26 Q 206.299 40.625 206.299 40.088 Q 206.299 39.356 207.08 38.867 Q 207.862 38.379 208.936 38.379 Q 211.426 38.379 212.866 39.673 Q 214.307 40.967 214.307 42.822 L 214.307 70.02 Q 217.041 66.992 219.312 63.135 Q 221.582 59.277 223.096 54.102 Q 223.584 52.539 224.17 51.831 Q 224.756 51.123 225.537 51.123 Q 226.123 51.123 226.734 51.489 Q 227.344 51.856 227.857 52.442 Q 228.369 53.027 228.687 53.76 Q 229.004 54.492 229.004 55.225 L 229.004 55.615 Q 229.004 55.908 228.907 56.201 Q 227.637 60.547 225.952 63.892 Q 224.268 67.236 222.364 69.873 Q 220.459 72.51 218.408 74.585 Q 216.358 76.66 214.307 78.418 L 214.307 95.703 Q 214.307 99.658 213.404 102.368 Q 212.5 105.078 211.035 106.763 Q 209.571 108.447 207.691 109.18 Q 205.811 109.912 203.907 109.912 Q 201.807 109.912 200.049 109.009 Q 198.291 108.106 197.022 106.543 Q 195.752 104.981 195.044 102.881 Q 194.336 100.781 194.336 98.389 Q 194.336 94.58 195.337 91.651 Q 196.338 88.721 198.047 86.279 Q 199.756 83.838 202.002 81.714 Q 204.248 79.59 206.739 77.393 Z M 206.739 95.703 L 206.739 85.01 Q 204.297 87.451 202.808 90.527 Q 201.319 93.604 201.319 98.096 Q 201.319 100.44 202.002 102.026 Q 202.686 103.613 203.907 103.613 Q 205.127 103.613 205.713 102.637 Q 206.299 101.66 206.519 100.366 Q 206.739 99.072 206.739 97.754 L 206.739 95.703 Z" id="6" vector-effect="non-scaling-stroke"/></g></svg>