<svg xmlns="http://www.w3.org/2000/svg" viewBox="0 12.960000038146973 114.5 54.959999084472656" data-asc="0.9462890625" width="114.5" height="54.959999084472656"><defs/><g fill="#000000"><g transform="translate(0, 0)"><path d="M6.45 48.71Q4.98 48.71 3.78 48.19Q2.59 47.68 1.75 46.67Q0.90 45.65 0.45 44.15Q0 42.65 0 40.67Q0 37.79 0.81 35.53Q1.61 33.28 3.00 31.65Q4.39 30.03 6.23 29.06Q8.06 28.10 10.11 27.81L10.11 16.50Q10.11 15.97 10.02 15.65Q9.94 15.33 9.85 15.15Q9.77 14.97 9.68 14.86Q9.59 14.75 9.59 14.62Q9.59 14.48 9.74 14.38Q9.89 14.28 10.13 14.21Q10.38 14.14 10.66 14.10Q10.94 14.06 11.21 14.06Q12.45 14.06 13.17 14.71Q13.89 15.36 13.89 16.26L13.89 43.12Q13.89 43.53 13.99 43.93Q14.09 44.34 14.29 44.67Q14.50 45.00 14.83 45.20Q15.16 45.41 15.60 45.41Q16.36 45.41 16.91 44.87Q17.46 44.34 17.86 43.53Q18.26 42.72 18.52 41.78Q18.77 40.84 18.95 40.01Q19.09 39.23 19.43 38.88Q19.78 38.53 20.14 38.53Q20.43 38.53 20.75 38.71Q21.07 38.89 21.33 39.18Q21.58 39.48 21.74 39.84Q21.90 40.21 21.90 40.58Q21.90 40.63 21.90 40.70Q21.90 40.77 21.85 40.92Q21.53 42.16 20.98 43.53Q20.43 44.90 19.57 46.04Q18.70 47.19 17.50 47.95Q16.31 48.71 14.70 48.71Q13.40 48.71 12.43 48.17Q11.45 47.63 10.89 46.75Q10.06 47.61 8.97 48.16Q7.89 48.71 6.45 48.71M7.20 45.41Q8.18 45.41 8.90 44.85Q9.62 44.29 10.11 43.46L10.11 31.10Q8.89 31.32 7.75 31.92Q6.62 32.52 5.75 33.59Q4.88 34.67 4.37 36.32Q3.86 37.96 3.86 40.31Q3.86 41.67 4.14 42.64Q4.42 43.60 4.87 44.21Q5.32 44.82 5.93 45.12Q6.54 45.41 7.20 45.41ZM30.66 32.76Q30.66 34.16 30.19 35.62Q29.71 37.08 28.77 38.39Q27.83 39.70 26.45 40.73Q25.07 41.77 23.27 42.31Q23.51 42.94 23.91 43.52Q24.32 44.09 24.88 44.51Q25.44 44.92 26.18 45.17Q26.93 45.41 27.91 45.41Q29.37 45.41 30.42 44.86Q31.47 44.31 32.19 43.41Q32.91 42.50 33.35 41.38Q33.79 40.26 34.01 39.11Q34.18 38.28 34.70 38.00Q35.23 37.72 35.78 37.87Q36.33 38.01 36.73 38.49Q37.13 38.96 37.06 39.62Q36.96 40.38 36.73 41.36Q36.50 42.33 36.04 43.33Q35.57 44.34 34.85 45.30Q34.13 46.26 33.08 47.02Q32.03 47.78 30.62 48.24Q29.20 48.71 27.37 48.71Q25.66 48.71 24.06 48.03Q22.46 47.36 21.23 46.11Q20.00 44.85 19.25 43.01Q18.51 41.16 18.51 38.82Q18.51 36.45 19.17 34.41Q19.82 32.37 20.90 30.88Q21.97 29.39 23.34 28.55Q24.71 27.71 26.15 27.71Q27.20 27.71 28.04 28.08Q28.88 28.44 29.47 29.11Q30.05 29.79 30.36 30.71Q30.66 31.64 30.66 32.76M22.61 38.67Q22.61 38.89 22.63 39.11Q22.66 39.33 22.66 39.58Q23.58 39.14 24.34 38.45Q25.10 37.77 25.63 36.89Q26.17 36.01 26.46 34.97Q26.76 33.94 26.76 32.81Q26.76 31.98 26.48 31.52Q26.20 31.05 25.71 31.05Q25.10 31.05 24.62 31.47Q24.15 31.88 23.79 32.56Q23.44 33.23 23.21 34.07Q22.97 34.91 22.83 35.77Q22.68 36.62 22.63 37.39Q22.58 38.16 22.61 38.67ZM37.79 32.67L37.79 33.76Q39.50 35.84 40.88 38.02Q42.26 40.21 43.23 42.63Q44.19 45.04 44.71 47.73Q45.24 50.42 45.24 53.52Q45.24 56.64 44.76 59.29Q44.29 61.94 43.42 63.85Q42.55 65.77 41.32 66.85Q40.09 67.92 38.60 67.92Q37.28 67.92 36.40 67.27Q35.52 66.63 35.00 65.56Q34.47 64.50 34.24 63.16Q34.01 61.82 34.01 60.42L34.01 33.52Q33.94 33.45 33.85 33.35Q33.76 33.25 33.69 33.15Q33.11 32.57 32.63 32.07Q32.15 31.57 32.15 30.96Q32.15 30.59 32.42 30.21Q32.69 29.83 33.30 29.76Q33.42 29.76 33.59 29.74Q33.76 29.71 34.01 29.71L34.01 15.50Q34.01 14.97 33.92 14.65Q33.84 14.33 33.75 14.15Q33.67 13.96 33.58 13.85Q33.50 13.75 33.50 13.62Q33.50 13.48 33.64 13.38Q33.79 13.28 34.03 13.21Q34.28 13.13 34.56 13.10Q34.84 13.06 35.11 13.06Q36.35 13.06 37.07 13.71Q37.79 14.36 37.79 15.26L37.79 29.42Q38.67 29.35 39.55 29.28Q40.43 29.22 41.26 29.16Q42.09 29.10 42.79 29.08Q43.48 29.05 43.99 29.05Q44.82 29.05 45.43 29.37Q46.04 29.69 46.04 30.47Q46.04 30.74 45.98 31.25Q45.92 31.76 45.81 32.30Q45.70 32.84 45.52 33.23Q45.34 33.62 45.09 33.62Q44.97 33.62 44.91 33.53Q44.85 33.45 44.71 33.35Q44.58 33.25 44.32 33.15Q44.07 33.06 43.55 33.01L37.79 32.67M41.46 53.52Q41.46 51.81 41.22 49.99Q40.99 48.17 40.53 46.30Q40.06 44.43 39.38 42.59Q38.70 40.75 37.79 39.01L37.79 60.42Q37.79 61.01 37.84 61.69Q37.89 62.38 38.02 62.94Q38.16 63.50 38.39 63.88Q38.62 64.26 38.99 64.26Q39.53 64.26 39.99 63.48Q40.45 62.70 40.77 61.27Q41.09 59.84 41.27 57.87Q41.46 55.91 41.46 53.52ZM51.20 32.52Q51.46 32.01 51.72 31.14Q51.98 30.27 52.21 29.22Q52.44 28.17 52.64 27.03Q52.83 25.88 52.98 24.78Q53.13 23.68 53.21 22.72Q53.30 21.75 53.30 21.07Q53.30 18.58 52.93 17.42Q52.56 16.26 51.95 16.26Q51.76 16.26 51.61 16.46Q51.46 16.65 51.37 16.96Q51.27 17.26 51.23 17.61Q51.20 17.97 51.20 18.26L51.20 32.52M58.30 40.06Q58.45 39.33 58.75 39.00Q59.06 38.67 59.41 38.64Q59.77 38.60 60.13 38.81Q60.50 39.01 60.77 39.36Q61.04 39.70 61.17 40.12Q61.30 40.55 61.21 40.97Q60.86 41.97 60.23 43.31Q59.59 44.65 58.62 45.85Q57.64 47.05 56.32 47.88Q55.00 48.71 53.30 48.71Q51.86 48.71 50.76 48.23Q49.66 47.75 48.91 46.89Q48.17 46.02 47.79 44.81Q47.41 43.60 47.41 42.11L47.41 19.36Q47.41 17.97 47.77 16.78Q48.12 15.60 48.74 14.76Q49.37 13.92 50.20 13.44Q51.03 12.96 51.95 12.96Q53.05 12.96 53.81 13.37Q54.57 13.77 55.05 14.43Q55.54 15.09 55.82 15.94Q56.10 16.80 56.23 17.69Q56.35 18.58 56.37 19.45Q56.40 20.31 56.40 21.02Q56.40 22.85 56.05 24.87Q55.71 26.88 55.19 28.83Q54.66 30.79 54.04 32.58Q53.42 34.38 52.84 35.77Q52.27 37.16 51.82 38.04Q51.37 38.92 51.20 39.06L51.20 41.97Q51.20 43.48 51.83 44.45Q52.47 45.41 53.86 45.41Q54.71 45.41 55.46 44.89Q56.20 44.36 56.77 43.57Q57.35 42.77 57.74 41.83Q58.13 40.89 58.30 40.06ZM72.56 45.41Q73.32 45.41 73.86 44.87Q74.41 44.34 74.82 43.53Q75.22 42.72 75.48 41.78Q75.73 40.84 75.90 40.01Q76.07 39.23 76.40 38.88Q76.73 38.53 77.12 38.53Q77.42 38.53 77.72 38.71Q78.03 38.89 78.28 39.18Q78.54 39.48 78.70 39.84Q78.86 40.21 78.86 40.58Q78.86 40.63 78.86 40.70Q78.86 40.77 78.81 40.92Q78.49 42.16 77.94 43.53Q77.39 44.90 76.54 46.04Q75.68 47.19 74.48 47.95Q73.27 48.71 71.66 48.71Q70.34 48.71 69.36 48.14Q68.38 47.58 67.82 46.66Q67.07 47.51 66.00 48.11Q64.94 48.71 63.53 48.71Q62.06 48.71 60.95 48.12Q59.84 47.53 59.08 46.52Q58.33 45.51 57.95 44.13Q57.57 42.75 57.57 41.16Q57.57 38.04 58.57 35.55Q59.57 33.06 61.23 31.31Q62.89 29.57 65.03 28.64Q67.16 27.71 69.46 27.71Q70.48 27.71 71.12 28.27Q71.75 28.83 71.75 29.81Q71.75 30.44 71.62 30.70Q71.48 30.96 71.12 30.96Q70.78 30.96 70.41 30.91Q70.04 30.86 69.65 30.86Q68.24 30.86 66.77 31.48Q65.31 32.10 64.12 33.39Q62.94 34.67 62.18 36.63Q61.43 38.60 61.43 41.31Q61.43 43.29 62.18 44.35Q62.94 45.41 64.26 45.41Q65.28 45.41 65.97 44.64Q66.65 43.87 67.07 42.82L67.07 35.11Q67.07 34.74 67.03 34.50Q66.99 34.25 66.96 34.08Q66.92 33.91 66.89 33.78Q66.87 33.64 66.87 33.52Q66.87 33.13 67.25 32.90Q67.63 32.67 68.16 32.67Q69.41 32.67 70.14 33.31Q70.87 33.96 70.87 34.86L70.87 43.12Q70.87 43.53 70.97 43.93Q71.07 44.34 71.26 44.67Q71.46 45.00 71.79 45.20Q72.12 45.41 72.56 45.41ZM76.12 30.66Q76.12 29.96 76.01 29.64Q75.90 29.32 75.90 29.05Q75.90 28.69 76.29 28.45Q76.68 28.22 77.22 28.22Q78.47 28.22 79.19 28.87Q79.91 29.52 79.91 30.42L79.91 32.67Q80.42 31.62 81.02 30.71Q81.62 29.81 82.31 29.14Q83.01 28.47 83.80 28.09Q84.59 27.71 85.52 27.71Q86.77 27.71 87.57 28.17Q88.38 28.64 88.84 29.37Q89.31 30.10 89.49 31.01Q89.67 31.91 89.67 32.76L89.67 43.12Q89.67 43.29 89.70 43.66Q89.72 44.04 89.84 44.43Q89.97 44.82 90.22 45.12Q90.48 45.41 90.97 45.41Q91.72 45.41 92.27 44.87Q92.82 44.34 93.23 43.53Q93.63 42.72 93.88 41.78Q94.14 40.84 94.31 40.01Q94.46 39.23 94.80 38.88Q95.14 38.53 95.51 38.53Q95.80 38.53 96.12 38.71Q96.44 38.89 96.69 39.18Q96.95 39.48 97.11 39.84Q97.27 40.21 97.27 40.58Q97.27 40.63 97.27 40.70Q97.27 40.77 97.22 40.92Q96.90 42.16 96.35 43.53Q95.80 44.90 94.93 46.04Q94.07 47.19 92.87 47.95Q91.67 48.71 90.06 48.71Q89.06 48.71 88.29 48.33Q87.52 47.95 86.98 47.31Q86.43 46.68 86.15 45.83Q85.86 44.97 85.86 44.02L85.86 33.86Q85.86 33.28 85.84 32.76Q85.82 32.25 85.71 31.86Q85.60 31.47 85.39 31.24Q85.18 31.01 84.81 31.01Q84.28 31.01 83.50 31.74Q82.71 32.47 81.96 33.64Q81.20 34.81 80.63 36.29Q80.05 37.77 79.91 39.26L79.91 46.56Q79.91 46.92 79.90 47.30Q79.88 47.68 79.75 47.99Q79.61 48.29 79.33 48.50Q79.05 48.71 78.52 48.71Q78.15 48.71 77.72 48.62Q77.29 48.54 76.94 48.30Q76.59 48.07 76.35 47.64Q76.12 47.22 76.12 46.51L76.12 30.66ZM97.17 62.16Q97.17 60.25 97.67 58.79Q98.17 57.32 99.02 56.10Q99.88 54.88 101.00 53.82Q102.12 52.76 103.37 51.66L103.37 46.41Q102.61 47.17 101.60 47.69Q100.59 48.22 99.27 48.22Q97.80 48.22 96.69 47.63Q95.58 47.05 94.82 46.03Q94.07 45.02 93.69 43.64Q93.31 42.26 93.31 40.67Q93.31 37.55 94.31 35.06Q95.31 32.57 96.97 30.82Q98.63 29.08 100.77 28.15Q102.91 27.22 105.20 27.22Q106.23 27.22 106.86 27.77Q107.50 28.32 107.50 29.32Q107.50 29.96 107.36 30.21Q107.23 30.47 106.86 30.47Q106.52 30.47 106.15 30.42Q105.79 30.37 105.40 30.37Q103.98 30.37 102.51 30.99Q101.05 31.62 99.87 32.90Q98.68 34.18 97.92 36.15Q97.17 38.11 97.17 40.82Q97.17 42.77 97.92 43.85Q98.68 44.92 100 44.92Q100.76 44.92 101.32 44.47Q101.88 44.02 102.29 43.33Q102.71 42.65 102.97 41.83Q103.22 41.02 103.37 40.26L103.37 34.62Q103.37 33.91 103.26 33.59Q103.15 33.28 103.15 33.01Q103.15 32.64 103.54 32.40Q103.93 32.15 104.47 32.15Q105.71 32.15 106.43 32.80Q107.15 33.45 107.15 34.38L107.15 47.97Q108.52 46.46 109.66 44.53Q110.79 42.60 111.55 40.01Q111.79 39.23 112.08 38.88Q112.38 38.53 112.77 38.53Q113.06 38.53 113.37 38.71Q113.67 38.89 113.93 39.18Q114.18 39.48 114.34 39.84Q114.50 40.21 114.50 40.58Q114.50 40.63 114.50 40.77Q114.50 40.92 114.45 41.06Q113.82 43.24 112.98 44.91Q112.13 46.58 111.18 47.90Q110.23 49.22 109.20 50.26Q108.18 51.29 107.15 52.17L107.15 60.82Q107.15 62.79 106.70 64.15Q106.25 65.50 105.52 66.35Q104.79 67.19 103.85 67.55Q102.91 67.92 101.95 67.92Q100.90 67.92 100.02 67.47Q99.15 67.02 98.51 66.24Q97.88 65.45 97.52 64.40Q97.17 63.35 97.17 62.16M101.95 64.77Q102.56 64.77 102.86 64.28Q103.15 63.79 103.26 63.15Q103.37 62.50 103.37 61.84Q103.37 61.18 103.37 60.82L103.37 55.47Q102.15 56.69 101.40 58.23Q100.66 59.77 100.66 62.01Q100.66 63.18 101.00 63.98Q101.34 64.77 101.95 64.77Z"/></g></g></svg>